<svg xmlns="http://www.w3.org/2000/svg" viewBox="0 0 20 15">
  <rect width="20" height="15" fill="#fff"/>
  <circle cx="10" cy="7.5" r="3.5" fill="#cd2e3a"/>
  <path d="M10,4 Q13.5,7.5 10,11 Q6.5,7.5 10,4Z" fill="#003478"/>
  <g stroke="#000" stroke-width="0.5">
    <line x1="2" y1="3" x2="4.5" y2="5.5"/><line x1="2.5" y1="1.8" x2="5" y2="4.3"/><line x1="1.5" y1="4.2" x2="4" y2="6.7"/>
    <line x1="16" y1="9.5" x2="18.5" y2="12"/><line x1="15.5" y1="10.7" x2="18" y2="13.2"/><line x1="16.5" y1="8.3" x2="19" y2="10.8"/>
    <line x1="15.5" y1="3" x2="18" y2="5.5"/><line x1="16" y1="1.8" x2="18.5" y2="4.3"/><line x1="15" y1="4.2" x2="17.5" y2="6.7"/>
    <line x1="2" y1="9.5" x2="4.5" y2="12"/><line x1="1.5" y1="10.7" x2="4" y2="13.2"/><line x1="2.5" y1="8.3" x2="5" y2="10.8"/>
  </g>
</svg>
