<?xml version="1.0" encoding="UTF-8"?>
<svg id="Layer_1" data-name="Layer 1" xmlns="http://www.w3.org/2000/svg" viewBox="0 0 1612.09 1168.26">
  <path d="M666.29,1167.87l-.17-117.71-84.6-.04-288.56-2.1c-7.33,1.79-13.06,2.3-20.51,1.97-65.53-2.88-127.4-28.32-176.39-71.81l-26.43-26.38c-12.9-12.88-21.48-28.42-30.94-43.96-12.37-20.33-20.8-41.09-27.15-64.09-8.96-32.46-13.47-65.03-10.76-98.8,1.67-20.79,6-40.01,11.28-59.97,5.11-19.29,12.4-36.59,21.68-54.12,12.09-22.84,26.9-42.38,44.7-61.03,21.56-22.59,45.55-40.78,73.17-55.55,26.39-14.11,53.42-24.38,83.19-28.93,13.61-2.08,26.79-4.72,40.73-4.18l55.63,2.14,44.28.42,156.27,1.62,104.62-.26,67.27,1.68,91.3.59,303.08,1.91,218.24,1.96c4.74.04,7.28-3.32,7.28-7.62l.03-105.33.68-28.72c.08-3.26-2.04-5.42-5.55-5.46l-135.19-1.4-101.87-.77-199.99-.6c-1.07,0-2.95-.43-3.6-.81-.82-.47-1.33-2.51-1.31-3.87l1.53-116.83.02-84.51c0-.96.37-2.93.91-3.46.68-.65,2.57-1.04,3.99-1.04h118.91s155.44,1.51,155.44,1.51l151.5,1.06c8,.06,14.74-.44,22.19-3.17,44.84,2.69,91.31,11.91,130.37,34.09l39.93,26.19c12.69,8.32,22.87,18.38,33.19,29.25,52.81,55.62,80.26,129.57,77.16,206.46-1.51,37.36-8.91,73.29-24.61,107.2-6.2,13.38-12.03,26.11-20.64,38.08-29.52,41.06-63.78,73.77-108.85,97.26-35.76,18.63-88.5,33.22-128.4,31.61l-49.98-2.01-57.7-.08-156.36-1.17-281.01-1.29-96.2-1.72-219.55-.59-70.25-1.18-104.55-.33c-2.78,0-5.67,2.1-5.69,5.17l-.79,111.01-.71,22.34c-.04,1.22.85,4.03,1.66,4.89.94,1.01,3.5,1.72,5.65,1.73l166.89.86,205.38,1.42v-128.77s1.47.37,1.47.37l177.63,100.47,153.19,86.64,70.53,39.89c.29.3,1.4,1.42,1.29,1.4-.12-.02-.97.56-1.7.98l-402.26,227.5Z"/>
  <ellipse cx="584.89" cy="218.14" rx="218.08" ry="218.14"/>
  <ellipse cx="1324.71" cy="950.12" rx="218.08" ry="218.14"/>
</svg>